<svg width="1" height="1" viewBox="0 0 1 1" fill="none" xmlns="http://www.w3.org/2000/svg">
<path fill-rule="evenodd" clip-rule="evenodd" d="M0.49809 0.999996L0.498537 0.999998H0.498383L0.49809 0.999996ZM0.501617 0.999998H0.501463L0.50191 0.999996L0.501617 0.999998ZM0.496563 0.999988L0.497045 0.99999H0.496768L0.496563 0.999988V0.999988ZM0.503232 0.99999H0.502955L0.503438 0.999988L0.503232 0.99999ZM0.49509 0.999977L0.495412 0.999979L0.495154 0.999977H0.49509ZM0.504846 0.999977L0.504588 0.999979L0.50491 0.999977H0.504846ZM0.506459 0.999959L0.506346 0.999961L0.506781 0.999955L0.506459 0.999959ZM0.493219 0.999955L0.493654 0.999961L0.493541 0.999959L0.493219 0.999955V0.999955ZM0.50807 0.999936L0.507807 0.999939L0.508344 0.999932L0.50807 0.999936ZM0.491656 0.999932L0.492193 0.999939L0.49193 0.999936L0.491656 0.999932V0.999932ZM0.50968 0.999908L0.509324 0.999914L0.50982 0.999904L0.50968 0.999908ZM0.49018 0.999904L0.490676 0.999914L0.49032 0.999908L0.49018 0.999904ZM0.48835 0.999867L0.488789 0.999877L0.488711 0.999875L0.48835 0.999867ZM0.511289 0.999875L0.511211 0.999877L0.51165 0.999867L0.511289 0.999875ZM0.486744 0.999826L0.487348 0.999842L0.487104 0.999836L0.486744 0.999826ZM0.512896 0.999836L0.512652 0.999842L0.513256 0.999826L0.512896 0.999836ZM0.514504 0.999793L0.514111 0.999805L0.514728 0.999787L0.514504 0.999793V0.999793ZM0.485271 0.999787L0.485889 0.999805L0.485496 0.999793L0.485271 0.999787V0.999787ZM0.483865 0.999744L0.484305 0.999758L0.483891 0.999744L0.483512 0.999732L0.483865 0.999744V0.999744ZM0.516109 0.999744L0.515695 0.999758L0.516135 0.999744L0.516488 0.999732L0.516109 0.999744ZM0.517713 0.999691L0.517494 0.999699L0.518168 0.999676L0.517713 0.999691ZM0.481832 0.999676L0.482506 0.999699L0.482287 0.999691L0.481832 0.999676ZM0.480369 0.999621L0.481076 0.999646L0.480684 0.999633L0.480369 0.999621ZM0.519316 0.999633L0.518924 0.999646L0.519631 0.999621L0.519316 0.999633ZM0.478934 0.999563L0.479625 0.999592L0.479084 0.99957L0.478934 0.999563V0.999563ZM0.520916 0.99957L0.520375 0.999592L0.521066 0.999563L0.520916 0.99957V0.99957ZM0.476922 0.999475L0.477664 0.999508L0.477482 0.999502L0.476922 0.999475ZM0.522518 0.999502L0.522336 0.999508L0.523078 0.999475L0.522518 0.999502ZM0.475479 0.999408L0.476248 0.999443L0.475885 0.999428L0.475479 0.999408ZM0.524115 0.999428L0.523752 0.999443L0.524521 0.999408L0.524115 0.999428ZM0.474057 0.999336L0.474832 0.999375L0.474287 0.99935L0.474057 0.999336ZM0.525713 0.99935L0.525168 0.999375L0.525943 0.999336L0.525713 0.99935ZM0.527311 0.999266L0.526604 0.999303L0.52723 0.99927L0.527969 0.999229L0.527311 0.999266ZM0.47277 0.99927L0.473396 0.999303L0.472689 0.999266L0.472031 0.999229L0.47277 0.99927ZM0.528904 0.999176L0.528592 0.999193L0.529385 0.999148L0.528904 0.999176ZM0.470615 0.999148L0.471408 0.999193L0.471096 0.999176L0.470615 0.999148ZM0.469205 0.999064L0.469996 0.999111L0.469502 0.999084L0.469205 0.999064V0.999064ZM0.530498 0.999084L0.530004 0.999111L0.530795 0.999064L0.530498 0.999084ZM0.467859 0.99898L0.468572 0.999025L0.467908 0.998984L0.46724 0.998941L0.467859 0.99898ZM0.532092 0.998984L0.531428 0.999025L0.532141 0.99898L0.53276 0.998941L0.532092 0.998984V0.998984ZM0.533682 0.998881L0.533443 0.998896L0.534199 0.998846L0.533682 0.998881V0.998881ZM0.465801 0.998846L0.466557 0.998896L0.466318 0.998881L0.465801 0.998846V0.998846ZM0.464393 0.998748L0.465135 0.998801L0.464729 0.998773L0.464393 0.998748ZM0.535271 0.998773L0.534865 0.998801L0.535607 0.998748L0.535271 0.998773V0.998773ZM0.462988 0.998648L0.46367 0.998697L0.463141 0.99866L0.462988 0.998648ZM0.536859 0.99866L0.53633 0.998697L0.537012 0.998648L0.536859 0.99866ZM0.4611 0.998506L0.461697 0.998551L0.461553 0.998541L0.4611 0.998506V0.998506ZM0.538447 0.998541L0.538303 0.998551L0.5389 0.998506L0.538447 0.998541V0.998541ZM0.540031 0.998418L0.539746 0.998439L0.540354 0.998391L0.540031 0.998418V0.998418ZM0.459646 0.998391L0.460254 0.998439L0.459969 0.998418L0.459646 0.998391V0.998391ZM0.45823 0.998275L0.458746 0.998318L0.458383 0.998289L0.45823 0.998275ZM0.541617 0.998289L0.541254 0.998318L0.54177 0.998275L0.541617 0.998289V0.998289ZM0.456672 0.998145L0.456826 0.998158L0.456801 0.998156L0.456672 0.998145V0.998145ZM0.543199 0.998156L0.543174 0.998158L0.543328 0.998145L0.543199 0.998156V0.998156ZM0.544781 0.998018L0.544641 0.998029L0.544994 0.997998L0.544781 0.998018V0.998018ZM0.455006 0.997998L0.455359 0.998029L0.455219 0.998018L0.455006 0.997998V0.997998ZM0.453541 0.997865L0.453805 0.997891L0.453641 0.997875L0.453541 0.997865ZM0.546359 0.997875L0.546195 0.997891L0.546459 0.997865L0.546359 0.997875ZM0.421875 0.99392C0.182971 0.956369 0 0.749383 0 0.5C0 0.224043 0.224043 0 0.5 0C0.775957 0 1 0.224043 1 0.5C1 0.749383 0.817029 0.956369 0.578125 0.99392V0.644531H0.694629L0.716797 0.5H0.578125V0.406209C0.578125 0.366668 0.597496 0.328125 0.659607 0.328125H0.722656V0.205078C0.722656 0.205078 0.665438 0.195312 0.610732 0.195312C0.496521 0.195312 0.421875 0.264531 0.421875 0.389844V0.5H0.294922V0.644531H0.421875V0.99392Z" fill="white"/>
</svg>
