<svg width="1" height="1" viewBox="0 0 1 1" fill="none" xmlns="http://www.w3.org/2000/svg">
<path fill-rule="evenodd" clip-rule="evenodd" d="M0.5 0C0.775957 0 1 0.224043 1 0.5C1 0.775957 0.775957 1 0.5 1C0.224043 1 0 0.775957 0 0.5C0 0.224043 0.224043 0 0.5 0ZM0.5 0.1875C0.415131 0.1875 0.404488 0.187859 0.371156 0.189381C0.337895 0.190898 0.315178 0.196182 0.295299 0.203906C0.27475 0.211893 0.257322 0.222578 0.239949 0.239951C0.222576 0.257324 0.211891 0.274752 0.203904 0.295301C0.19618 0.315178 0.190898 0.337895 0.189379 0.371156C0.187859 0.404488 0.1875 0.415131 0.1875 0.5C0.1875 0.584869 0.187859 0.595512 0.189379 0.628844C0.190898 0.662105 0.19618 0.684822 0.203904 0.704699C0.211891 0.725248 0.222576 0.742676 0.239949 0.760051C0.257322 0.777424 0.27475 0.788109 0.295299 0.796096C0.315178 0.803818 0.337895 0.809102 0.371156 0.810619C0.404488 0.812141 0.415131 0.8125 0.5 0.8125C0.584869 0.8125 0.595512 0.812141 0.628844 0.810619C0.662105 0.809102 0.684822 0.803818 0.704699 0.796096C0.725248 0.788109 0.742676 0.777424 0.760051 0.760051C0.777424 0.742676 0.788109 0.725248 0.796096 0.704699C0.803818 0.684822 0.809102 0.662105 0.810619 0.628844C0.812141 0.595512 0.8125 0.584869 0.8125 0.5C0.8125 0.415131 0.812141 0.404488 0.810619 0.371156C0.809102 0.337895 0.803818 0.315178 0.796096 0.295301C0.788109 0.274752 0.777424 0.257324 0.760051 0.239951C0.742676 0.222578 0.725248 0.211893 0.704699 0.203906C0.684822 0.196182 0.662105 0.190898 0.628844 0.189381C0.595512 0.187859 0.584869 0.1875 0.5 0.1875ZM0.5 0.243807C0.583441 0.243807 0.593324 0.244125 0.626277 0.245629C0.656746 0.24702 0.673291 0.252109 0.684303 0.256389C0.698891 0.262057 0.709301 0.26883 0.720234 0.279766C0.731172 0.290699 0.737943 0.301111 0.743611 0.315697C0.747891 0.326709 0.752982 0.343254 0.754371 0.373723C0.755875 0.406676 0.756193 0.416559 0.756193 0.5C0.756193 0.583441 0.755875 0.593324 0.754371 0.626277C0.752982 0.656746 0.747891 0.673291 0.743611 0.684303C0.737943 0.698891 0.731172 0.709301 0.720234 0.720234C0.709301 0.731172 0.698891 0.737943 0.684303 0.743611C0.673291 0.747891 0.656746 0.752982 0.626277 0.754371C0.59333 0.755875 0.583447 0.756193 0.5 0.756193C0.416553 0.756193 0.406672 0.755875 0.373723 0.754371C0.343254 0.752982 0.326709 0.747891 0.315697 0.743611C0.301109 0.737943 0.290699 0.731172 0.279764 0.720234C0.268828 0.709301 0.262057 0.698891 0.256389 0.684303C0.252109 0.673291 0.247018 0.656746 0.245627 0.626277C0.244123 0.593324 0.243807 0.583441 0.243807 0.5C0.243807 0.416559 0.244123 0.406676 0.245627 0.373723C0.247018 0.343254 0.252109 0.326709 0.256389 0.315697C0.262057 0.301111 0.268828 0.290699 0.279764 0.279766C0.290699 0.26883 0.301109 0.262057 0.315697 0.256389C0.326709 0.252109 0.343254 0.24702 0.373723 0.245629C0.406676 0.244125 0.416559 0.243807 0.5 0.243807ZM0.5 0.339527C0.411373 0.339527 0.339527 0.411373 0.339527 0.5C0.339527 0.588627 0.411373 0.660473 0.5 0.660473C0.588627 0.660473 0.660473 0.588627 0.660473 0.5C0.660473 0.411373 0.588627 0.339527 0.5 0.339527V0.339527ZM0.5 0.604166C0.442471 0.604166 0.395834 0.557529 0.395834 0.5C0.395834 0.442471 0.442471 0.395834 0.5 0.395834C0.557529 0.395834 0.604166 0.442471 0.604166 0.5C0.604166 0.557529 0.557529 0.604166 0.5 0.604166V0.604166ZM0.704314 0.333187C0.704314 0.353898 0.687523 0.370686 0.666812 0.370686C0.646103 0.370686 0.629314 0.353898 0.629314 0.333187C0.629314 0.312477 0.646103 0.295687 0.666812 0.295687C0.687523 0.295687 0.704314 0.312477 0.704314 0.333187Z" fill="white"/>
</svg>
