<svg width="166" height="49" viewBox="0 0 166 49" fill="none" xmlns="http://www.w3.org/2000/svg">
<path fill-rule="evenodd" clip-rule="evenodd" d="M0 14.13V14.253L27.95 27.383L56 14.209V14.176L27.95 1L0 14.13ZM10.077 14.192L27.95 5.795L45.827 14.192L27.95 22.588L10.076 14.192H10.077ZM27.95 32.483L0 19.55V24.334L27.95 37.298L56 24.289V19.505L27.95 32.483ZM27.95 42.186L0 29.25V34.033L27.95 47L56 33.99V29.206L27.95 42.186V42.186Z" fill="white"/>
<mask id="mask0" mask-type="alpha" maskUnits="userSpaceOnUse" x="72" y="0" width="94" height="49">
<path d="M72.0139 0.0300293H165.974V48.32H72.0149L72.0139 0.0300293Z" fill="white"/>
</mask>
<g mask="url(#mask0)">
<path fill-rule="evenodd" clip-rule="evenodd" d="M159.56 24.1521C159.576 22.0868 158.803 20.0933 157.399 18.5791C156.738 17.8709 155.943 17.302 155.059 16.9061C154.163 16.5041 153.191 16.2992 152.209 16.3051C151.199 16.3051 150.248 16.5051 149.357 16.9061C148.473 17.302 147.677 17.8708 147.017 18.5791C145.613 20.0938 144.84 22.0876 144.857 24.1531C144.84 26.2181 145.613 28.2116 147.017 29.7261C147.678 30.4339 148.473 31.0024 149.357 31.3981C150.253 31.8004 151.225 32.0057 152.208 32.0001C153.218 32.0001 154.168 31.8001 155.06 31.3981C155.943 31.0022 156.739 30.4338 157.399 29.7261C158.803 28.2114 159.576 26.2175 159.559 24.1521H159.56ZM165.975 24.1521C165.975 26.0841 165.618 27.8751 164.905 29.5251C164.22 31.1336 163.221 32.5889 161.965 33.8051C160.718 35.0101 159.255 35.9611 157.577 36.6591C155.899 37.3581 154.109 37.7071 152.208 37.7071C150.308 37.7071 148.525 37.3581 146.862 36.6591C145.237 35.986 143.756 35.01 142.496 33.7831C141.243 32.5561 140.244 31.0942 139.556 29.4811C138.843 27.8311 138.486 26.0551 138.486 24.1521C138.486 22.2791 138.85 20.5181 139.578 18.8681C140.282 17.2518 141.288 15.7841 142.54 14.5431C143.795 13.3044 145.278 12.3204 146.907 11.6451C148.586 10.9434 150.388 10.587 152.208 10.5971C154.109 10.5971 155.898 10.9471 157.577 11.6451C159.255 12.3431 160.717 13.2951 161.965 14.4991C163.213 15.7031 164.193 17.1371 164.905 18.8011C165.618 20.4661 165.975 22.2501 165.975 24.1521V24.1521ZM136.258 36.9051C135.708 37.1582 135.133 37.3526 134.543 37.4851C133.905 37.6331 133.243 37.7071 132.561 37.7071C131.634 37.7104 130.712 37.5828 129.821 37.3281C128.975 37.0921 128.192 36.6736 127.526 36.1021C126.873 35.5371 126.353 34.8021 125.966 33.8951C125.581 32.9881 125.388 31.8951 125.388 30.6181V0.0290527H131.937V29.5031C131.937 30.5731 132.152 31.3091 132.583 31.7101C133.013 32.1111 133.526 32.3121 134.12 32.3121C134.862 32.3121 135.575 32.0891 136.258 31.6431V36.9051V36.9051ZM122.492 11.2201L110.908 41.8541C110.047 44.1431 108.918 45.7931 107.522 46.8041C106.126 47.8141 104.462 48.3191 102.532 48.3191C102.235 48.3191 101.909 48.2971 101.552 48.2531C101.206 48.2104 100.863 48.1433 100.527 48.0521L98.3889 42.0771C98.8895 42.3131 99.412 42.4997 99.9489 42.6341C100.483 42.7681 100.988 42.8351 101.463 42.8351C102.473 42.8351 103.393 42.6051 104.225 42.1441C105.057 41.6841 105.695 40.8291 106.141 39.5801L107.032 36.9941L97.0969 11.2211H104.092L110.017 27.8091L115.587 11.2211H122.492V11.2201ZM95.5379 7.34205H78.7859V15.6361H95.3149V21.2541H78.7849V37.0381H72.0149V1.41205H95.5389V7.34205H95.5379Z" fill="white"/>
</g>
</svg>
