<svg width="1" height="1" viewBox="0 0 1 1" fill="none" xmlns="http://www.w3.org/2000/svg">
<path fill-rule="evenodd" clip-rule="evenodd" d="M0.5 0C0.775957 0 1 0.224043 1 0.5C1 0.775957 0.775957 1 0.5 1C0.224043 1 0 0.775957 0 0.5C0 0.224043 0.224043 0 0.5 0ZM0.411932 0.765934C0.633187 0.765934 0.754166 0.582594 0.754166 0.423701C0.754166 0.418463 0.754166 0.413225 0.753916 0.408234C0.777363 0.391273 0.797818 0.37007 0.814031 0.345875C0.79258 0.355354 0.769381 0.36184 0.744936 0.364832C0.769881 0.349865 0.788838 0.326418 0.797818 0.298232C0.774619 0.311951 0.748928 0.321928 0.721488 0.327416C0.699537 0.303969 0.668357 0.289502 0.633686 0.289502C0.567334 0.289502 0.513455 0.343381 0.513455 0.409732C0.513455 0.419211 0.514453 0.428439 0.516697 0.43717C0.416672 0.432182 0.328119 0.384289 0.268754 0.311451C0.258525 0.329162 0.252539 0.349865 0.252539 0.371816C0.252539 0.413473 0.273742 0.450391 0.30617 0.471842C0.286463 0.471344 0.268004 0.465855 0.251791 0.456877V0.458373C0.251791 0.516742 0.293197 0.565133 0.348324 0.576359C0.338348 0.579102 0.327621 0.5806 0.316646 0.5806C0.308912 0.5806 0.30143 0.579852 0.293947 0.578354C0.309162 0.626246 0.353563 0.66092 0.406195 0.661916C0.365037 0.694096 0.313154 0.713303 0.256779 0.713303C0.247051 0.713303 0.237572 0.712803 0.228094 0.711557C0.280727 0.745978 0.344084 0.765934 0.411932 0.765934V0.765934Z" fill="white"/>
</svg>
